<?xml version="1.0" ?><svg viewBox="0 0 64 64" xmlns="http://www.w3.org/2000/svg"><defs><style>.cls-1{isolation:isolate;}.cls-2{fill:#111;}.cls-3{fill:#ffed00;}.cls-4{opacity:0.2;mix-blend-mode:multiply;}.cls-5{fill:#3c3c3b;}</style></defs><title/><g class="cls-1"><g data-name="Layer 1" id="Layer_1"><rect class="cls-2" height="56" rx="3" transform="translate(0 64) rotate(-90)" width="56" x="4" y="4"/><rect class="cls-3" height="6.438" rx="3.219" width="6.438" x="35.245" y="28.781"/><rect class="cls-3" height="6.438" rx="3.219" transform="translate(51.071 64) rotate(-180)" width="6.438" x="22.316" y="28.781"/><path class="cls-4" d="M45.4,45.4c-8,8-17.529,12.967-26.571,14.6H57a3.086,3.086,0,0,0,1.29-.29,3.055,3.055,0,0,0,1.42-1.42A3.086,3.086,0,0,0,60,57V18.825C58.363,27.867,53.392,37.4,45.4,45.4Z"/><path class="cls-5" d="M57,4a3.086,3.086,0,0,1,1.29.29,3.055,3.055,0,0,1,1.42,1.42A3.086,3.086,0,0,1,60,7V57a3.086,3.086,0,0,1-.29,1.29,3.055,3.055,0,0,1-1.42,1.42A3.086,3.086,0,0,1,57,60H7a3.086,3.086,0,0,1-1.29-.29,3.055,3.055,0,0,1-1.42-1.42A3.086,3.086,0,0,1,4,57V7a3.086,3.086,0,0,1,.29-1.29A3.055,3.055,0,0,1,5.71,4.29,3.086,3.086,0,0,1,7,4H57m0-2H7A5,5,0,0,0,2.49,4.839,5.153,5.153,0,0,0,2,7V57a5,5,0,0,0,2.839,4.51A5.153,5.153,0,0,0,7,62H57a5,5,0,0,0,5-5V7a5,5,0,0,0-2.839-4.51A5.153,5.153,0,0,0,57,2Z"/></g></g></svg>